<?xml version="1.0" encoding="UTF-8"?>
<svg width="69px" height="72px" viewBox="0 0 69 72" version="1.1" xmlns="http://www.w3.org/2000/svg" xmlns:xlink="http://www.w3.org/1999/xlink">
    <!-- Generator: Sketch 61.2 (89653) - https://sketch.com -->
    <title>check_list</title>
    <desc>Created with Sketch.</desc>
    <g id="check_list" stroke="none" stroke-width="1" fill="none" fill-rule="evenodd">
        <g id="noun_Fitness-Agenda_1531105" transform="translate(3.000000, 0.000000)" fill="#FFFFFF" fill-rule="nonzero">
            <g id="Group">
                <path d="M9.3443603,21.267503 L9.3443603,27.9336689 C9.3443603,28.3163311 9.6518554,28.6259766 10.0318603,28.6259766 L16.6517333,28.6259766 C17.0317382,28.6259766 17.3392333,28.3163311 17.3392333,27.9336689 L17.3392333,21.267503 C17.3392333,20.8848408 17.0317382,20.5751953 16.6517333,20.5751953 L10.0318603,20.5751953 C9.6518554,20.5751953 9.3443603,20.8848408 9.3443603,21.267503 Z M10.7193603,21.9598107 L15.9642333,21.9598107 L15.9642333,27.2413612 L10.7193603,27.2413612 L10.7193603,21.9598107 Z" id="Shape"></path>
                <rect id="Rectangle" x="19.6723022" y="23.9082782" width="24.5512696" height="1.38461538"></rect>
                <path d="M16.6517335,34.2401592 L10.0318604,34.2401592 C9.65185554,34.2401592 9.34436044,34.5498047 9.34436044,34.9324669 L9.34436044,41.5986328 C9.34436044,41.981295 9.65185554,42.2909405 10.0318604,42.2909405 L16.6517335,42.2909405 C17.0317384,42.2909405 17.3392335,41.981295 17.3392335,41.5986328 L17.3392335,34.9324669 C17.3392335,34.5498047 17.0317384,34.2401592 16.6517335,34.2401592 Z M15.9642335,40.9063251 L10.7193604,40.9063251 L10.7193604,35.6247746 L15.9642335,35.6247746 L15.9642335,40.9063251 Z" id="Shape"></path>
                <rect id="Rectangle" x="19.6723022" y="37.5732422" width="24.5512696" height="1.38461538"></rect>
                <path d="M16.6517335,47.9051232 L10.0318604,47.9051232 C9.65185554,47.9051232 9.34436044,48.2147686 9.34436044,48.5974308 L9.34436044,55.2635967 C9.34436044,55.646259 9.65185554,55.9559044 10.0318604,55.9559044 L16.6517335,55.9559044 C17.0317384,55.9559044 17.3392335,55.646259 17.3392335,55.2635967 L17.3392335,48.5974308 C17.3392335,48.2147686 17.0317384,47.9051232 16.6517335,47.9051232 Z M15.9642335,54.5712891 L10.7193604,54.5712891 L10.7193604,49.2897387 L15.9642335,49.2897387 L15.9642335,54.5712891 Z" id="Shape"></path>
                <rect id="Rectangle" x="19.6723022" y="51.2382061" width="14.1870728" height="1.38461538"></rect>
                <path d="M65.2379761,33.7378305 L61.6729127,30.1478365 C60.8692627,29.3378907 59.5600587,29.3378907 58.7564087,30.1478365 L56.0990601,32.823768 L54.3547973,34.5803129 L54.3547973,5.71627108 C54.3547973,5.3336088 54.0473022,5.02396338 53.6672973,5.02396338 L42.4088134,5.02396338 L42.4088134,1.38461538 C42.4088134,1.00195311 42.1013183,0.692307692 41.7213134,0.692307692 L12.7912598,0.692307692 C12.4112549,0.692307692 12.1037598,1.00195311 12.1037598,1.38461538 L12.1037598,5.02396338 L0.845275887,5.02396338 C0.465270988,5.02396338 0.157775887,5.3336088 0.157775887,5.71627108 L0.157775887,70.6153846 C0.157775887,70.9980469 0.465270988,71.3076923 0.845275887,71.3076923 L53.6672973,71.3076923 C54.0473022,71.3076923 54.3547973,70.9980469 54.3547973,70.6153846 L54.3547973,47.6346905 L62.5806275,39.3513371 L65.2379761,36.6754056 C66.0422973,35.8654597 66.0422973,34.5477765 65.2379761,33.7378305 Z M12.7912598,15.6952374 L41.7213136,15.6952374 C42.1013185,15.6952374 42.4088136,15.3855919 42.4088136,15.0029297 L42.4088136,11.6691707 L47.5852051,11.6691707 L47.5852051,41.3971604 L34.2232667,54.8532151 C34.1077881,54.9695012 34.0372926,55.1229717 34.0238649,55.2865835 L33.5377809,61.3239934 C33.5216676,61.526818 33.5948488,61.726262 33.7371827,61.8695914 C33.8049089,61.9377912 33.8856431,61.9879057 33.9726716,62.0223013 C33.9977646,62.0321046 34.0267181,62.0315975 34.053154,62.0383583 C34.1092987,62.0530631 34.1645204,62.072416 34.2232667,62.072416 C34.2413941,62.072416 34.260193,62.0717399 34.2789917,62.0703878 L40.2744752,61.5809046 C40.4369508,61.567383 40.5893555,61.4963944 40.7048341,61.3801084 L47.5852051,54.4516229 L47.5852051,63.2907155 L6.92736811,63.2907155 L6.92736811,11.6691707 L12.1037597,11.6691707 L12.1037597,15.0029297 C12.1037598,15.3855919 12.4112549,15.6952374 12.7912598,15.6952374 Z M34.973877,60.6242488 L35.2743226,56.8905875 L38.6816101,60.3217022 L34.973877,60.6242488 Z M52.9797973,6.40857877 L52.9797973,35.9648438 L48.9602051,40.0127141 L48.9602051,10.976863 C48.9602051,10.5942007 48.65271,10.2845553 48.2727051,10.2845553 L42.4088136,10.2845553 L42.4088136,6.40857877 L52.9797973,6.40857877 Z M13.4787598,2.07692308 L41.0338136,2.07692308 L41.0338136,5.71627108 L41.0338136,10.976863 L41.0338136,14.310622 L13.4787598,14.310622 L13.4787598,10.976863 L13.4787598,5.71627108 L13.4787598,2.07692308 Z M52.9797973,69.9230769 L1.53277589,69.9230769 L1.53277589,6.40857877 L12.1037598,6.40857877 L12.1037598,10.2845553 L6.23986825,10.2845553 C5.85986335,10.2845553 5.55236825,10.5942007 5.55236825,10.976863 L5.55236825,63.9830229 C5.55236825,64.3656852 5.85986335,64.6753306 6.23986825,64.6753306 L48.2727051,64.6753306 C48.65271,64.6753306 48.9602051,64.3656852 48.9602051,63.9830229 L48.9602051,53.0670072 L52.9797973,49.019306 L52.9797973,69.9230769 Z M53.1812134,46.8585487 L47.7866212,52.2908654 L40.21875,59.9116586 L35.6815185,55.3426982 L56.585144,34.2922175 L58.8537597,36.5770357 L61.1223753,38.8618539 L53.1812134,46.8585487 Z M64.2658081,35.6964393 L62.0945434,37.8828876 L59.8259277,35.5980694 L57.557312,33.3132512 L59.7285767,31.1274789 C59.9971314,30.8570462 60.4335328,30.8577223 60.7007446,31.1268028 L64.2658081,34.7167968 C64.5336915,34.9872296 64.5336915,35.4260066 64.2658081,35.6964393 Z" id="Shape"></path>
            </g>
        </g>
    </g>
</svg>