<?xml version="1.0" encoding="UTF-8"?>
<svg width="48px" height="52px" viewBox="0 0 48 52" version="1.1" xmlns="http://www.w3.org/2000/svg" xmlns:xlink="http://www.w3.org/1999/xlink">
    <!-- Generator: Sketch 61.2 (89653) - https://sketch.com -->
    <title>Artboard</title>
    <desc>Created with Sketch.</desc>
    <g id="Artboard" stroke="none" stroke-width="1" fill="none" fill-rule="evenodd">
        <g id="noun_Fitness-Agenda_1531105" fill="#FFFFFF" fill-rule="nonzero">
            <g id="Group">
                <path d="M6.7958984,15.3598633 L6.7958984,20.1743164 C6.7958984,20.4506836 7.0195312,20.6743164 7.2958984,20.6743164 L12.1103515,20.6743164 C12.3867187,20.6743164 12.6103515,20.4506836 12.6103515,20.1743164 L12.6103515,15.3598633 C12.6103515,15.0834961 12.3867187,14.8598633 12.1103515,14.8598633 L7.2958984,14.8598633 C7.0195312,14.8598633 6.7958984,15.0834961 6.7958984,15.3598633 Z M7.7958984,15.8598633 L11.6103515,15.8598633 L11.6103515,19.6743164 L7.7958984,19.6743164 L7.7958984,15.8598633 Z" id="Shape"></path>
                <rect id="Rectangle" x="14.3071289" y="17.2670898" width="17.8554688" height="1"></rect>
                <path d="M12.1103516,24.7290039 L7.2958985,24.7290039 C7.0195313,24.7290039 6.7958985,24.9526367 6.7958985,25.2290039 L6.7958985,30.043457 C6.7958985,30.3198242 7.0195313,30.543457 7.2958985,30.543457 L12.1103516,30.543457 C12.3867188,30.543457 12.6103516,30.3198242 12.6103516,30.043457 L12.6103516,25.2290039 C12.6103516,24.9526367 12.3867188,24.7290039 12.1103516,24.7290039 Z M11.6103516,29.543457 L7.7958985,29.543457 L7.7958985,25.7290039 L11.6103516,25.7290039 L11.6103516,29.543457 Z" id="Shape"></path>
                <rect id="Rectangle" x="14.3071289" y="27.1362305" width="17.8554688" height="1"></rect>
                <path d="M12.1103516,34.5981445 L7.2958985,34.5981445 C7.0195313,34.5981445 6.7958985,34.8217773 6.7958985,35.0981445 L6.7958985,39.9125976 C6.7958985,40.1889648 7.0195313,40.4125976 7.2958985,40.4125976 L12.1103516,40.4125976 C12.3867188,40.4125976 12.6103516,40.1889648 12.6103516,39.9125976 L12.6103516,35.0981445 C12.6103516,34.8217773 12.3867188,34.5981445 12.1103516,34.5981445 Z M11.6103516,39.4125977 L7.7958985,39.4125977 L7.7958985,35.5981446 L11.6103516,35.5981446 L11.6103516,39.4125977 Z" id="Shape"></path>
                <rect id="Rectangle" x="14.3071289" y="37.0053711" width="10.3178711" height="1"></rect>
                <path d="M47.4458008,24.3662109 L44.8530274,21.7734375 C44.2685547,21.1884766 43.3164063,21.1884766 42.7319336,21.7734375 L40.7993164,23.7060547 L39.5307617,24.9746704 L39.5307617,4.128418 C39.5307617,3.8520508 39.3071289,3.628418 39.0307617,3.628418 L30.8427734,3.628418 L30.8427734,1 C30.8427734,0.7236328 30.6191406,0.5 30.3427734,0.5 L9.3027344,0.5 C9.0263672,0.5 8.8027344,0.7236328 8.8027344,1 L8.8027344,3.628418 L0.6147461,3.628418 C0.3383789,3.628418 0.1147461,3.8520508 0.1147461,4.128418 L0.1147461,51 C0.1147461,51.2763672 0.3383789,51.5 0.6147461,51.5 L39.0307617,51.5 C39.3071289,51.5 39.5307617,51.2763672 39.5307617,51 L39.5307617,34.402832 L45.5131836,28.4204101 L47.4458008,26.4877929 C48.0307617,25.902832 48.0307617,24.9511719 47.4458008,24.3662109 Z M9.3027344,11.3354492 L30.3427735,11.3354492 C30.6191407,11.3354492 30.8427735,11.1118164 30.8427735,10.8354492 L30.8427735,8.4277344 L34.6074219,8.4277344 L34.6074219,29.8979492 L24.8896485,39.6162109 C24.8056641,39.7001953 24.7543946,39.8110351 24.744629,39.9291992 L24.3911134,44.2895508 C24.3793946,44.4360352 24.4326173,44.5800781 24.5361329,44.6835938 C24.5853883,44.7328492 24.6441041,44.769043 24.7073975,44.7938843 C24.725647,44.8009644 24.7467041,44.8005982 24.7659302,44.805481 C24.8067627,44.8161011 24.8469239,44.8300782 24.8896485,44.8300782 C24.9028321,44.8300782 24.916504,44.8295899 24.9301758,44.8286134 L29.2905274,44.4750978 C29.4086915,44.4653322 29.5195313,44.4140626 29.6035157,44.3300783 L34.6074219,39.3261721 L34.6074219,45.7099612 L5.0380859,45.7099612 L5.0380859,8.4277344 L8.8027343,8.4277344 L8.8027343,10.8354492 C8.8027344,11.1118164 9.0263672,11.3354492 9.3027344,11.3354492 Z M25.4355469,43.7841797 L25.6540528,41.0876465 L28.1320801,43.5656738 L25.4355469,43.7841797 Z M38.5307617,4.628418 L38.5307617,25.9746094 L35.6074219,28.8980713 L35.6074219,7.9277344 C35.6074219,7.6513672 35.3837891,7.4277344 35.1074219,7.4277344 L30.8427735,7.4277344 L30.8427735,4.628418 L38.5307617,4.628418 Z M9.8027344,1.5 L29.8427735,1.5 L29.8427735,4.128418 L29.8427735,7.9277344 L29.8427735,10.3354492 L9.8027344,10.3354492 L9.8027344,7.9277344 L9.8027344,4.128418 L9.8027344,1.5 Z M38.5307617,50.5 L1.1147461,50.5 L1.1147461,4.628418 L8.8027344,4.628418 L8.8027344,7.4277344 L4.538086,7.4277344 C4.2617188,7.4277344 4.038086,7.6513672 4.038086,7.9277344 L4.038086,46.209961 C4.038086,46.4863282 4.2617188,46.709961 4.538086,46.709961 L35.1074219,46.709961 C35.3837891,46.709961 35.6074219,46.4863282 35.6074219,46.209961 L35.6074219,38.3261719 L38.5307617,35.4028321 L38.5307617,50.5 Z M38.6772461,33.8422852 L34.7539063,37.765625 L29.25,43.2695312 L25.9501953,39.9697265 L41.152832,24.7666015 L42.8027343,26.416748 L44.4526366,28.0668945 L38.6772461,33.8422852 Z M46.7387695,25.7807617 L45.1596679,27.3598633 L43.5097656,25.7097168 L41.8598633,24.0595703 L43.4389649,22.480957 C43.6342774,22.2856445 43.9516602,22.2861328 44.1459961,22.4804687 L46.7387695,25.0732421 C46.9335938,25.2685547 46.9335938,25.5854492 46.7387695,25.7807617 Z" id="Shape"></path>
            </g>
        </g>
    </g>
</svg>