<?xml version="1.0" encoding="UTF-8"?>
<svg width="64px" height="65px" viewBox="0 0 64 65" version="1.1" xmlns="http://www.w3.org/2000/svg" xmlns:xlink="http://www.w3.org/1999/xlink">
    <!-- Generator: Sketch 61.2 (89653) - https://sketch.com -->
    <title>Artboard</title>
    <desc>Created with Sketch.</desc>
    <g id="Artboard" stroke="none" stroke-width="1" fill="none" fill-rule="evenodd">
        <g id="noun_scientific-content_2244093" fill="#FFFFFF" fill-rule="nonzero">
            <g id="Group">
                <path d="M59.1709,0 L4.8291,0 C2.6958,0 0.9697,1.7357 0.9697,3.8788 L0.9697,47.0982 C0.9697,49.2412 2.6958,50.977 4.8291,50.977 L59.1709,50.977 C61.2945,50.977 63.0303,49.2412 63.0303,47.0982 L63.0303,3.8788 C63.0303,1.7357 61.2946,0 59.1709,0 Z M32,47.7866 C30.8849,47.7866 29.9927,46.8848 29.9927,45.7794 C29.9927,44.6739 30.8849,43.7721 32,43.7721 C33.1055,43.7721 34.0073,44.6739 34.0073,45.7794 C34.0073,46.8848 33.1055,47.7866 32,47.7866 Z M57.7358,41.0569 L6.2643,41.0569 L6.2643,5.3333 L57.7358,5.3333 L57.7358,41.0569 Z" id="Shape"></path>
                <path d="M44.3539,57.8909 L43.3357,57.8909 L41.5321,52.9163 L22.9334,52.9163 L21.1298,57.8909 L20.1116,57.8909 C18.0074,57.8909 16.291,59.6072 16.291,61.7309 L16.291,63.0303 C16.291,63.5636 16.7274,64 17.2607,64 L47.1953,64 C47.7383,64 48.165,63.5636 48.165,63.0303 L48.165,61.7309 C48.165,59.6072 46.4582,57.8909 44.3539,57.8909 Z" id="Path"></path>
                <path d="M54.0315,31.6994 L46.2836,18.8897 L46.2836,14.4679 L46.972,14.4679 C47.2435,14.4679 47.4568,14.2546 47.4568,13.9831 L47.4568,11.6946 C47.4568,11.4328 47.2435,11.2098 46.972,11.2098 L40.3684,11.2098 C40.0969,11.2098 39.8836,11.4328 39.8836,11.6946 L39.8836,13.9831 C39.8836,14.2546 40.097,14.4679 40.3684,14.4679 L41.0569,14.4679 L41.0569,18.8897 L35.8108,27.5685 C35.8012,27.5879 35.7817,27.6073 35.7817,27.6267 L33.3188,31.68 C32.8631,32.3685 32.8146,33.2509 33.2024,33.9879 C33.6,34.7346 34.337,35.171 35.1806,35.171 L52.16,35.171 C53.0036,35.171 53.7406,34.7346 54.1382,33.9879 C54.5261,33.2509 54.4776,32.3685 54.0315,31.6994 Z M41.2509,32.96 C41.1539,32.9212 39.6218,33.0279 39.4763,31.4764 C39.3793,30.6521 39.9999,29.7988 40.9406,29.7115 C41.8327,29.6242 42.6279,30.2933 42.7055,31.1854 C42.7733,32.0679 42.1236,32.863 41.2509,32.96 Z M48.8049,30.5745 C48.7952,31.3309 48.1746,31.9515 47.4182,31.9515 C46.6521,31.9515 46.0315,31.3309 46.0315,30.5745 C46.0315,30.5649 46.0315,30.5649 46.0315,30.5649 C46.0315,29.8085 46.6521,29.1879 47.4182,29.1879 C48.1842,29.1879 48.8049,29.8085 48.8049,30.5649 L48.8049,30.5745 Z M42.2497,26.4921 C40.7855,26.8703 39.1273,27.2678 37.1006,27.3066 L41.9588,19.2775 C41.9976,19.1999 42.0267,19.1127 42.0267,19.0254 L42.0267,14.4678 L45.314,14.4678 L45.314,19.0254 C45.314,19.1127 45.3334,19.1999 45.3818,19.2775 L49.8036,26.5987 C46.8558,25.3188 44.7031,25.8618 42.2497,26.4921 Z" id="Shape"></path>
                <path d="M42.9479,24.2812 C43.7721,24.194 44.3733,23.4667 44.3151,22.6231 C44.2429,21.8923 43.6948,21.2558 42.6472,21.2558 C41.8229,21.3431 41.212,22.0801 41.2896,22.914 C41.4012,24.0425 42.6096,24.4503 42.9479,24.2812 Z" id="Path"></path>
                <path d="M11.5832,26.1749 L28.8247,26.1749 C29.0927,26.1749 29.3095,25.958 29.3095,25.6901 C29.3095,25.4222 29.0926,25.2053 28.8247,25.2053 L11.5832,25.2053 C11.3152,25.2053 11.0984,25.4222 11.0984,25.6901 C11.0984,25.958 11.3152,26.1749 11.5832,26.1749 Z" id="Path"></path>
                <path d="M11.5832,16.1522 L34.0368,16.1522 C34.3048,16.1522 34.5217,15.9353 34.5217,15.6674 C34.5217,15.3995 34.3048,15.1826 34.0368,15.1826 L11.5832,15.1826 C11.3152,15.1826 11.0984,15.3995 11.0984,15.6674 C11.0984,15.9353 11.3152,16.1522 11.5832,16.1522 Z" id="Path"></path>
                <path d="M11.5832,31.1862 L28.8247,31.1862 C29.0927,31.1862 29.3095,30.9693 29.3095,30.7014 C29.3095,30.4334 29.0926,30.2166 28.8247,30.2166 L11.5832,30.2166 C11.3152,30.2166 11.0984,30.4335 11.0984,30.7014 C11.0984,30.9694 11.3152,31.1862 11.5832,31.1862 Z" id="Path"></path>
                <path d="M11.5832,21.1635 L34.0368,21.1635 C34.3048,21.1635 34.5217,20.9466 34.5217,20.6787 C34.5217,20.4108 34.3048,20.1939 34.0368,20.1939 L11.5832,20.1939 C11.3152,20.1939 11.0984,20.4108 11.0984,20.6787 C11.0984,20.9466 11.3152,21.1635 11.5832,21.1635 Z" id="Path"></path>
                <path d="M11.5832,36.1976 L28.8247,36.1976 C29.0927,36.1976 29.3095,35.9807 29.3095,35.7128 C29.3095,35.4448 29.0926,35.228 28.8247,35.228 L11.5832,35.228 C11.3152,35.228 11.0984,35.4449 11.0984,35.7128 C11.0984,35.9808 11.3152,36.1976 11.5832,36.1976 Z" id="Path"></path>
                <path d="M11.5832,11.1408 L34.0368,11.1408 C34.3048,11.1408 34.5217,10.9239 34.5217,10.656 C34.5217,10.388 34.3048,10.1712 34.0368,10.1712 L11.5832,10.1712 C11.3152,10.1712 11.0984,10.3881 11.0984,10.656 C11.0984,10.9239 11.3152,11.1408 11.5832,11.1408 Z" id="Path"></path>
            </g>
        </g>
    </g>
</svg>