<?xml version="1.0" encoding="UTF-8"?>
<svg width="71px" height="72px" viewBox="0 0 71 72" version="1.1" xmlns="http://www.w3.org/2000/svg" xmlns:xlink="http://www.w3.org/1999/xlink">
    <!-- Generator: Sketch 61.2 (89653) - https://sketch.com -->
    <title>computer_list</title>
    <desc>Created with Sketch.</desc>
    <g id="computer_list" stroke="none" stroke-width="1" fill="none" fill-rule="evenodd">
        <g id="noun_scientific-content_2244093" transform="translate(1.000000, 0.000000)" fill="#FFFFFF" fill-rule="nonzero">
            <g id="Group">
                <path d="M65.500229,0 L4.49977097,0 C2.10507155,0 0.167467516,1.9526625 0.167467516,4.36365 L0.167467516,52.985475 C0.167467516,55.39635 2.10507155,57.349125 4.49977097,57.349125 L65.500229,57.349125 C67.8840399,57.349125 69.8325325,55.39635 69.8325325,52.985475 L69.8325325,4.36365 C69.8325325,1.9526625 67.8841521,0 65.500229,0 Z M35,53.759925 C33.7482636,53.759925 32.7467397,52.7454 32.7467397,51.501825 C32.7467397,50.2581375 33.7482636,49.2436125 35,49.2436125 C36.2409601,49.2436125 37.2532603,50.2581375 37.2532603,51.501825 C37.2532603,52.7454 36.2409601,53.759925 35,53.759925 Z M63.8892821,46.1890125 L6.11083018,46.1890125 L6.11083018,5.9999625 L63.8892821,5.9999625 L63.8892821,46.1890125 Z" id="Shape"></path>
                <path d="M48.8676591,65.1272625 L47.7246961,65.1272625 L45.7000958,59.5308375 L24.8224433,59.5308375 L22.7978429,65.1272625 L21.6548799,65.1272625 C19.2928462,65.1272625 17.3661308,67.0581 17.3661308,69.4472625 L17.3661308,70.9090875 C17.3661308,71.50905 17.8560041,72 18.4546509,72 L52.0572241,72 C52.6667595,72 53.1457442,71.50905 53.1457442,70.9090875 L53.1457442,69.4472625 C53.1457442,67.0581 51.2298051,65.1272625 48.8676591,65.1272625 Z" id="Path"></path>
                <path d="M59.7310835,35.661825 L51.0338109,21.2509125 L51.0338109,16.2763875 L51.8065625,16.2763875 C52.1113302,16.2763875 52.3507664,16.036425 52.3507664,15.7309875 L52.3507664,13.156425 C52.3507664,12.8619 52.1113302,12.611025 51.8065625,12.611025 L44.3938043,12.611025 C44.0890366,12.611025 43.8496003,12.8619 43.8496003,13.156425 L43.8496003,15.7309875 C43.8496003,16.036425 44.0891488,16.2763875 44.3938043,16.2763875 L45.1666682,16.2763875 L45.1666682,21.2509125 L39.2777484,31.0145625 C39.266972,31.0363875 39.2450826,31.0582125 39.2450826,31.0800375 L36.4803964,35.64 C35.9688581,36.4145625 35.9144153,37.4072625 36.3497336,38.2363875 C36.7960526,39.076425 37.6233594,39.567375 38.5703281,39.567375 L57.6302632,39.567375 C58.5772319,39.567375 59.4045387,39.076425 59.8508577,38.2363875 C60.2862882,37.4072625 60.2318454,36.4145625 59.7310835,35.661825 Z M45.3844396,37.08 C45.2755539,37.03635 43.5557212,37.1563875 43.3923927,35.41095 C43.283507,34.4836125 43.9801509,33.52365 45.0361176,33.4254375 C46.0375292,33.327225 46.9301674,34.0799625 47.0172759,35.083575 C47.0933836,36.0763875 46.364074,36.970875 45.3844396,37.08 Z M53.864053,34.3963125 C53.8531645,35.2472625 53.1565206,35.9454375 52.3074367,35.9454375 C51.4474642,35.9454375 50.7508203,35.2472625 50.7508203,34.3963125 C50.7508203,34.3855125 50.7508203,34.3855125 50.7508203,34.3855125 C50.7508203,33.5345625 51.4474642,32.8363875 52.3074367,32.8363875 C53.1672969,32.8363875 53.864053,33.5345625 53.864053,34.3855125 L53.864053,34.3963125 Z M46.5056254,29.8036125 C44.8620127,30.2290875 43.0006287,30.676275 40.7255913,30.719925 L46.1790806,21.6871875 C46.2226349,21.5998875 46.2553006,21.5017875 46.2553006,21.403575 L46.2553006,16.276275 L49.945403,16.276275 L49.945403,21.403575 C49.945403,21.5017875 49.9671801,21.5998875 50.0215107,21.6871875 L54.9851266,29.9235375 C51.6761242,28.48365 49.2596476,29.094525 46.5056254,29.8036125 Z" id="Shape"></path>
                <path d="M47.2893779,27.31635 C48.2145695,27.21825 48.8894363,26.4000375 48.8241049,25.4509875 C48.743058,24.6288375 48.1277977,23.912775 46.9518322,23.912775 C46.0265284,24.0109875 45.340773,24.8401125 45.4278816,25.77825 C45.5531563,27.0478125 46.909625,27.5065875 47.2893779,27.31635 Z" id="Path"></path>
                <path d="M12.0814704,29.4467625 L31.4356213,29.4467625 C31.7364601,29.4467625 31.9798252,29.20275 31.9798252,28.9013625 C31.9798252,28.599975 31.7363479,28.3559625 31.4356213,28.3559625 L12.0814704,28.3559625 C11.7806316,28.3559625 11.5372664,28.599975 11.5372664,28.9013625 C11.5372664,29.20275 11.7806316,29.4467625 12.0814704,29.4467625 Z" id="Path"></path>
                <path d="M12.0814704,18.171225 L37.286375,18.171225 C37.5872138,18.171225 37.8306912,17.9272125 37.8306912,17.625825 C37.8306912,17.3244375 37.5872138,17.080425 37.286375,17.080425 L12.0814704,17.080425 C11.7806316,17.080425 11.5372664,17.3244375 11.5372664,17.625825 C11.5372664,17.9272125 11.7806316,18.171225 12.0814704,18.171225 Z" id="Path"></path>
                <path d="M12.0814704,35.084475 L31.4356213,35.084475 C31.7364601,35.084475 31.9798252,34.8404625 31.9798252,34.539075 C31.9798252,34.237575 31.7363479,33.993675 31.4356213,33.993675 L12.0814704,33.993675 C11.7806316,33.993675 11.5372664,34.2376875 11.5372664,34.539075 C11.5372664,34.840575 11.7806316,35.084475 12.0814704,35.084475 Z" id="Path"></path>
                <path d="M12.0814704,23.8089375 L37.286375,23.8089375 C37.5872138,23.8089375 37.8306912,23.564925 37.8306912,23.2635375 C37.8306912,22.96215 37.5872138,22.7181375 37.286375,22.7181375 L12.0814704,22.7181375 C11.7806316,22.7181375 11.5372664,22.96215 11.5372664,23.2635375 C11.5372664,23.564925 11.7806316,23.8089375 12.0814704,23.8089375 Z" id="Path"></path>
                <path d="M12.0814704,40.7223 L31.4356213,40.7223 C31.7364601,40.7223 31.9798252,40.4782875 31.9798252,40.1769 C31.9798252,39.8754 31.7363479,39.6315 31.4356213,39.6315 L12.0814704,39.6315 C11.7806316,39.6315 11.5372664,39.8755125 11.5372664,40.1769 C11.5372664,40.4784 11.7806316,40.7223 12.0814704,40.7223 Z" id="Path"></path>
                <path d="M12.0814704,12.5334 L37.286375,12.5334 C37.5872138,12.5334 37.8306912,12.2893875 37.8306912,11.988 C37.8306912,11.6865 37.5872138,11.4426 37.286375,11.4426 L12.0814704,11.4426 C11.7806316,11.4426 11.5372664,11.6866125 11.5372664,11.988 C11.5372664,12.2893875 11.7806316,12.5334 12.0814704,12.5334 Z" id="Path"></path>
            </g>
        </g>
    </g>
</svg>