<?xml version="1.0" encoding="UTF-8"?>
<svg width="101px" height="72px" viewBox="0 0 101 72" version="1.1" xmlns="http://www.w3.org/2000/svg" xmlns:xlink="http://www.w3.org/1999/xlink">
    <!-- Generator: Sketch 61.2 (89653) - https://sketch.com -->
    <title>gear_pencil</title>
    <desc>Created with Sketch.</desc>
    <g id="gear_pencil" stroke="none" stroke-width="1" fill="none" fill-rule="evenodd">
        <g id="noun_customize_1005059" fill="#FFFFFF" fill-rule="nonzero">
            <g id="Group">
                <path d="M52.068,52.031 C55.238,52.031 58.275,51.061 60.849,49.226 C61.65,48.655 61.837,47.542 61.267,46.742 C60.695,45.941 59.583,45.753 58.783,46.324 C56.814,47.726 54.492,48.467 52.068,48.467 C49.779,48.467 47.566,47.802 45.668,46.542 C44.848,45.999 43.744,46.222 43.199,47.042 C42.656,47.861 42.879,48.967 43.699,49.511 C46.182,51.159 49.076,52.031 52.068,52.031 Z" id="Path"></path>
                <path d="M72.988,47.728 C72.293,47.033 71.164,47.033 70.468,47.728 C69.772,48.423 69.773,49.551 70.468,50.248 L76.351,56.132 L71.33,61.154 L65.447,55.27 C64.863,54.686 63.953,54.58 63.25,55.014 C61.309,56.212 59.203,57.085 56.99,57.609 C56.187,57.799 55.619,58.516 55.619,59.342 L55.619,67.661 L48.515,67.661 L48.515,59.342 C48.515,58.516 47.949,57.799 47.144,57.609 C44.931,57.086 42.826,56.213 40.884,55.014 C40.181,54.579 39.273,54.686 38.689,55.27 L32.806,61.154 L27.781,56.132 L33.666,50.248 C34.361,49.552 34.361,48.424 33.666,47.728 C32.971,47.032 31.844,47.033 31.146,47.728 L24.003,54.872 C23.308,55.568 23.308,56.696 24.003,57.392 L31.544,64.934 C32.241,65.629 33.368,65.629 34.064,64.934 L40.24,58.758 C41.742,59.571 43.318,60.224 44.953,60.711 L44.953,69.443 C44.953,70.427 45.75,71.225 46.734,71.225 L57.4,71.225 C58.384,71.225 59.181,70.427 59.181,69.443 L59.181,60.71 C60.814,60.223 62.392,59.569 63.894,58.757 L70.07,64.933 C70.765,65.628 71.894,65.628 72.59,64.933 L80.133,57.391 C80.828,56.696 80.828,55.568 80.133,54.871 L72.988,47.728 Z" id="Path"></path>
                <path d="M52.068,19.969 C48.896,19.969 45.859,20.938 43.285,22.772 C42.484,23.343 42.297,24.455 42.867,25.256 C43.215,25.744 43.763,26.005 44.32,26.005 C44.677,26.005 45.039,25.898 45.353,25.674 C47.32,24.273 49.642,23.531 52.068,23.531 C54.355,23.531 56.568,24.197 58.466,25.456 C59.286,26.001 60.392,25.777 60.935,24.957 C61.48,24.138 61.255,23.031 60.437,22.487 C57.953,20.839 55.059,19.969 52.068,19.969 Z" id="Path"></path>
                <path d="M70.469,24.271 C71.164,24.966 72.293,24.966 72.989,24.271 L80.134,17.127 C80.829,16.431 80.829,15.303 80.134,14.606 L72.591,7.064 C71.896,6.369 70.767,6.369 70.071,7.064 L63.895,13.241 C62.393,12.428 60.815,11.774 59.182,11.287 L59.182,2.556 C59.182,1.572 58.385,0.775 57.401,0.775 L46.734,0.775 C45.75,0.775 44.953,1.572 44.953,2.556 L44.953,11.287 C43.318,11.774 41.742,12.428 40.24,13.241 L34.064,7.064 C33.369,6.369 32.242,6.369 31.544,7.064 L24.003,14.606 C23.308,15.302 23.308,16.43 24.003,17.127 L31.146,24.271 C31.496,24.619 31.951,24.792 32.406,24.792 C32.863,24.792 33.318,24.618 33.666,24.271 C34.361,23.575 34.361,22.447 33.666,21.751 L27.781,15.867 L32.806,10.844 L38.689,16.729 C39.273,17.313 40.181,17.418 40.884,16.984 C42.825,15.786 44.931,14.913 47.144,14.39 C47.949,14.2 48.515,13.482 48.515,12.656 L48.515,4.338 L55.619,4.338 L55.619,12.656 C55.619,13.482 56.187,14.2 56.99,14.39 C59.203,14.912 61.308,15.786 63.25,16.984 C63.953,17.419 64.863,17.313 65.447,16.729 L71.33,10.844 L76.351,15.867 L70.468,21.751 C69.773,22.447 69.773,23.575 70.469,24.271 Z" id="Path"></path>
                <path d="M94.014,27.623 L78.838,27.623 L21.387,27.623 C21.35,27.623 21.315,27.627 21.278,27.629 C21.258,27.63 21.239,27.63 21.219,27.632 C21.084,27.645 20.951,27.673 20.826,27.715 C20.822,27.717 20.816,27.717 20.812,27.719 L1.41,34.31 C0.689,34.556 0.203,35.235 0.203,35.997 C0.203,36.76 0.689,37.438 1.41,37.685 L20.812,44.275 C20.818,44.277 20.824,44.279 20.828,44.28 C20.855,44.29 20.881,44.297 20.906,44.303 C20.933,44.311 20.963,44.318 20.99,44.324 C21.013,44.329 21.037,44.334 21.06,44.34 C21.093,44.346 21.128,44.351 21.162,44.355 C21.182,44.358 21.201,44.361 21.221,44.362 C21.276,44.367 21.33,44.371 21.385,44.371 L21.385,44.371 L21.385,44.371 L78.838,44.371 L94.014,44.371 C95,44.371 95.797,43.573 95.797,42.59 L95.797,29.404 C95.797,28.932 95.609,28.479 95.276,28.144 C94.941,27.811 94.488,27.623 94.014,27.623 Z M77.057,40.807 L23.168,40.807 L23.168,35.996 L23.168,31.187 L77.057,31.187 L77.057,40.807 Z M19.605,31.892 L19.605,35.996 L19.603,40.1 L7.523,35.996 L19.605,31.892 Z M92.232,40.807 L80.619,40.807 L80.619,31.188 L92.232,31.187 L92.232,40.807 Z" id="Shape"></path>
            </g>
        </g>
    </g>
</svg>