<?xml version="1.0" encoding="UTF-8"?>
<svg width="79px" height="79px" viewBox="0 0 79 79" version="1.1" xmlns="http://www.w3.org/2000/svg" xmlns:xlink="http://www.w3.org/1999/xlink">
    <!-- Generator: Sketch 61.2 (89653) - https://sketch.com -->
    <title>Icon</title>
    <desc>Created with Sketch.</desc>
    <g id="Icon" stroke="none" stroke-width="1" fill="none" fill-rule="evenodd" stroke-dasharray="0.1,1" stroke-linecap="round" stroke-linejoin="round">
        <g id="Logo-Copy">
            <path d="M77.1655273,34.7961426 C76.3195801,24.3549805 70.822998,17.8117676 66.2717285,11.6442871 C62.7481933,9.45232655 58.718717,6.30534225 55.5625,4.85839844 C50.527832,2.55029297 47.3558065,1.81591797 42.8110352,1.81591797" id="Oval" stroke="#FFFFFE" stroke-width="3.5" stroke-dasharray="0,7"></path>
            <path d="M36.0441896,26.4109219 C35.7187753,28.5954742 37.2256446,30.630325 39.4103572,30.9557525 C41.5940785,31.2814277 43.6288478,29.7742502 43.955997,27.5894499 C44.2806679,25.4048976 42.7737986,23.3697989 40.5878467,23.0441236 C38.4043733,22.7189441 36.369604,24.2261216 36.0441896,26.4109219" id="Fill-24" fill="#FFFFFE"></path>
            <path d="M79,39.4998664 C79,39.0666677 78.8237305,38.6428167 78.5165942,38.3367466 C78.2121286,38.0304095 77.7874793,37.8546729 77.3548177,37.8546729 C76.9194853,37.8546729 76.4975067,38.0304095 76.1903704,38.3367466 C75.8832341,38.6428167 75.7096353,39.0666677 75.7096353,39.4998664 C75.7096353,39.5004005 75.7096353,39.5009347 75.7096353,39.5012017 C75.7069646,44.5048867 74.6947501,49.2631281 72.8626153,53.5937793 C70.1170837,60.0896227 65.5233928,65.6218528 59.7438886,69.5262494 C53.9617137,73.430646 47.0044085,75.7088117 39.4995995,75.7093458 C34.4956813,75.7090787 29.736938,74.6963233 25.4057818,72.8644431 C18.9099823,70.1172905 13.3780567,65.5238356 9.47368652,59.7437582 C5.5693163,53.9628796 3.29116609,47.0049932 3.29063194,39.4998664 C3.29089901,34.4961814 4.30391469,29.7374059 6.13551541,25.4062205 C8.88264942,18.9106441 13.4760733,13.3784141 19.2561116,9.47401746 C25.0369511,5.56962084 31.9945234,3.29145522 39.4993324,3.29065399 L39.4995995,3.29065399 C39.9322611,3.29065399 40.3569104,3.1151845 40.6640467,2.80911441 C40.9685123,2.50251018 41.1447818,2.0786592 41.1447818,1.64546053 C41.1447818,1.21226187 40.9685123,0.788410891 40.6640467,0.482073732 C40.3569104,0.175469497 39.9322611,0 39.4995995,0 C39.4993324,0 39.4993324,0 39.4990653,0 C34.049933,0 28.8502488,1.10543112 24.1240886,3.1047685 C17.0332459,6.10430871 11.005629,11.1109315 6.74685021,17.4142125 C2.4880714,23.7164252 -0.000801031772,31.3249108 0,39.4998664 C0,44.9493026 1.10515677,50.149022 3.1047477,54.8757483 C6.10400056,61.9666389 11.1105895,67.9942966 17.4138279,72.2531042 C23.7159979,76.5119118 31.3246992,79.000801 39.4995995,79 C44.9479306,79 50.1478819,77.8945687 54.8751104,75.8952313 C61.965953,72.8956911 67.993837,67.8893354 72.2510134,61.5860544 C76.5108605,55.2838417 79,47.675089 79,39.4998664" id="Fill-23" fill="#FFFFFE"></path>
            <path d="M57.2029508,20.4217248 C51.2224075,29.5887614 46.1271771,35.4092653 37.9357585,34.205505 C29.7438049,33.0022722 26.0436781,24.7969253 25.3257989,14 C22.2809641,23.4420688 25.0120611,36.2412179 28.1748484,44.1024449 C28.7416092,45.5108312 28.8320128,47.0602935 28.4326858,48.523528 C27.0611194,53.5489964 24.0729874,65.6960319 24.7312216,74 C27.0538978,65.7572087 32.1354873,53.1621582 36.9538902,53.1621582 C40.8875151,53.1621582 42.5912745,66.3824257 58,66.1134585 C52.4741491,63.3939887 42.7223329,54.5515586 44.5625001,46.3317087 C46.3277768,38.4467493 56.4700936,29.0191837 57.2029508,20.4217248" id="Fill-25" fill="#FFFFFE"></path>
        </g>
    </g>
</svg>