<?xml version="1.0" encoding="UTF-8"?>
<svg width="79px" height="238px" viewBox="0 0 79 238" version="1.1" xmlns="http://www.w3.org/2000/svg" xmlns:xlink="http://www.w3.org/1999/xlink">
    <!-- Generator: Sketch 61.2 (89653) - https://sketch.com -->
    <title>Artboard</title>
    <desc>Created with Sketch.</desc>
    <g id="Artboard" stroke="none" stroke-width="1" fill="none" fill-rule="evenodd">
        <g id="noun_Thinking_882797" fill="#FFFFFF" fill-rule="nonzero">
            <g id="Group">
                <path d="M38.901,80.163 C35.499,87.517 32.723,91.859 29.323,95.158 C26.12,98.217 22.393,99.836 18.538,99.855 L18.53,99.855 L18.45,99.855 C15.801,99.855 13.618,99.046 11.997,98.166 L11.997,224.82 C11.997,231.65 17.534,237.183 24.36,237.183 C31.188,237.183 36.725,231.65 36.725,224.82 L36.725,134.549 L41.36,134.549 L41.36,224.82 C41.36,231.65 46.897,237.183 53.723,237.183 C60.551,237.183 66.088,231.65 66.088,224.82 L66.088,107.956 C65.834,108.243 65.596,108.547 65.334,108.826 C56.895,117.965 44.346,123.001 30.006,123.001 L29.633,123.001 C27.932,123.001 26.164,122.935 24.377,122.807 C21.713,122.618 19.283,121.4 17.533,119.38 C15.785,117.362 14.925,114.781 15.119,112.119 C15.49,106.91 19.867,102.831 25.086,102.831 C25.322,102.831 25.565,102.838 25.807,102.857 C27.135,102.952 28.424,103 29.633,103 C41.736,102.902 47.281,98.74 50.76,95.125 C55.659,89.953 57.948,82.668 59.002,77.473 L60.904,78.123 C59.511,84.824 56.779,91.677 52.201,96.514 C47.523,101.373 41.17,104.907 29.633,104.999 C28.369,104.999 27.047,104.951 25.664,104.851 C21.256,104.535 17.426,107.853 17.111,112.261 C16.797,116.667 20.113,120.496 24.521,120.812 L24.52,120.812 C26.268,120.937 27.971,121 29.633,121 C29.756,121 29.881,121 30.004,121 C44.957,121.001 56.482,115.464 63.871,107.461 C70.717,100.125 74.223,91.321 76.129,83.335 C76.287,82.672 76.438,82.014 76.574,81.363 C76.593,81.281 76.619,81.201 76.634,81.117 C77.997,74.451 78.296,68.43 78.3,64.179 C78.3,60.459 78.062,58.094 78.04,57.876 C77.618,53.795 74.186,50.698 70.083,50.698 L59.583,50.698 C59.376,50.698 59.173,50.714 58.972,50.729 C58.769,50.712 58.566,50.698 58.359,50.698 L49.146,50.698 C49.099,51.466 48.972,52.239 48.738,53.006 C45.268,64.355 42.051,73.238 38.901,80.163 Z" id="Path"></path>
                <path d="M39.172,40.08 C40.16,40.08 41.145,40.226 42.098,40.519 C44.002,41.101 45.6,42.208 46.797,43.626 C55.402,40.467 61.543,32.201 61.543,22.499 C61.543,10.073 51.469,-0.001 39.043,-0.001 C26.617,-0.001 16.543,10.073 16.543,22.499 C16.543,32.27 22.772,40.582 31.473,43.69 C33.327,41.445 36.108,40.08 39.172,40.08 Z" id="Path"></path>
                <path d="M2.936,79.641 C3.823,83.06 4.922,86.577 6.77,89.916 C7.655,91.468 8.71,93.028 10.292,94.494 C10.436,94.628 10.579,94.763 10.733,94.894 C12.499,96.439 15.299,97.855 18.45,97.855 C18.475,97.855 18.501,97.855 18.528,97.855 C22.497,97.835 25.665,95.884 27.93,93.72 C31.385,90.37 34.034,85.919 37.078,79.334 C40.072,72.753 43.273,64.035 46.826,52.421 C48.117,48.194 45.738,43.722 41.513,42.431 C37.286,41.14 32.816,43.517 31.525,47.744 L31.523,47.744 C26.984,62.631 23.082,72.205 20.132,77.476 C19.864,77.964 19.603,78.414 19.353,78.826 C19.089,78.058 18.843,77.219 18.617,76.365 L19.867,73.642 C21.972,69.301 24.881,62.189 28.509,50.699 L19.724,50.699 C19.517,50.699 19.314,50.714 19.113,50.73 C18.91,50.714 18.707,50.699 18.5,50.699 L8.003,50.699 C5.804,50.699 3.716,51.595 2.202,53.187 C0.688,54.779 -0.101,56.91 0.011,59.104 C0.046,59.368 0.519,70.029 2.896,79.521 C2.905,79.563 2.924,79.6 2.936,79.641 Z" id="Path"></path>
            </g>
        </g>
    </g>
</svg>