<?xml version="1.0" encoding="UTF-8"?>
<svg width="86px" height="227px" viewBox="0 0 86 227" version="1.1" xmlns="http://www.w3.org/2000/svg" xmlns:xlink="http://www.w3.org/1999/xlink">
    <!-- Generator: Sketch 61.2 (89653) - https://sketch.com -->
    <title>Artboard</title>
    <desc>Created with Sketch.</desc>
    <g id="Artboard" stroke="none" stroke-width="1" fill="none" fill-rule="evenodd">
        <g id="noun_People-Thought_641994" fill="#FFFFFF" fill-rule="nonzero">
            <g id="Group">
                <path d="M9.978,90.508 L9.978,108.88 L9.978,127.819 L9.978,213.82 C9.978,220.65 15.513,226.183 22.341,226.183 C29.169,226.183 34.704,220.65 34.704,213.82 L34.704,135.548 L39.739,135.548 L56.094,216.23 C57.451,222.923 63.976,227.248 70.668,225.89 C77.359,224.533 81.686,218.011 80.328,211.318 L64.706,134.255 C65.238,134.364 65.775,134.427 66.309,134.427 C69.254,134.427 72.088,132.795 73.484,129.978 C81.761,113.255 85.094,99.909 85.1070485,88.924 C85.117,81.627 83.579,75.401 81.098,70.375 C77.375,62.796 71.719,58.165 67.139,55.547 C63.159,53.268 59.915,52.368 58.739,52.083 C57.984,51.837 57.178,51.699 56.34,51.699 L45.83,51.699 C41.515,61.367 37.503,69.057 33.601,75.104 C29.85,80.87 22.012,90.525 9.978,90.508 Z M69.108,88.925 C69.119,94.572 67.794,102.092 64.068,111.758 L64.068,73.43 C66.715,76.498 69.041,80.882 69.108,88.925 Z" id="Shape"></path>
                <path d="M37.571,35.673 C38.955,35.673 40.302,35.956 41.577,36.515 C44.024,37.586 45.906,39.545 46.881,42.033 C46.957,42.227 47.015,42.425 47.078,42.622 C52.856,39.73 57.353,34.386 58.932,27.602 C61.75,15.502 54.225,3.409 42.126,0.592 C30.026,-2.225 17.932,5.299 15.114,17.399 C12.632,28.061 18.181,38.713 27.813,43.024 C28.011,42.573 28.209,42.121 28.408,41.668 C30.001,38.025 33.598,35.673 37.571,35.673 Z" id="Path"></path>
                <path d="M5.657,87.458 C5.937,87.669 6.228,87.869 6.542,88.045 C6.552,88.051 6.564,88.054 6.574,88.06 C6.816,88.195 7.063,88.308 7.313,88.412 C7.514,88.505 7.703,88.614 7.912,88.697 C8.569,88.958 9.268,89.145 9.978,89.287 C10.716,89.434 11.467,89.536 12.219,89.536 C12.242,89.536 12.263,89.536 12.285,89.536 C15.557,89.524 18.432,88.278 20.918,86.546 C24.664,83.893 28.038,79.985 31.921,74.02 C35.44,68.566 39.306,61.344 43.644,51.7 C44.058,50.78 44.474,49.847 44.896,48.884 C45.678,47.095 45.752,45.176 45.245,43.438 C44.603,41.243 43.033,39.336 40.774,38.348 C36.728,36.577 32.01,38.422 30.24,42.468 C30.047,42.91 29.858,43.33 29.668,43.76 C28.392,46.642 27.163,49.291 25.99,51.7 C25.034,53.663 24.115,55.468 23.232,57.134 C20.215,62.826 17.632,66.848 15.563,69.484 C14.02,71.47 12.771,72.657 12.034,73.226 C11.96,73.211 11.886,73.212 11.811,73.2 C14.423,70.649 18.19,63.761 22.272,55.187 C22.813,54.052 23.359,52.888 23.908,51.7 L17.705,51.7 C17.387,51.7 17.074,51.725 16.766,51.763 C16.401,51.712 16.031,51.676 15.652,51.676 C12.147,51.651 9.031,53.265 7.064,55.096 C4.055,57.897 2.613,61.067 1.541,64.253 C0.517,67.457 0.01,70.75 0,74.013 C0.012,76.293 0.235,78.546 0.999,80.915 C1.701,82.985 2.906,85.519 5.657,87.458 Z" id="Path"></path>
            </g>
        </g>
    </g>
</svg>