<?xml version="1.0" encoding="UTF-8"?>
<svg width="27px" height="72px" viewBox="0 0 27 72" version="1.1" xmlns="http://www.w3.org/2000/svg" xmlns:xlink="http://www.w3.org/1999/xlink">
    <!-- Generator: Sketch 61.2 (89653) - https://sketch.com -->
    <title>thinking1</title>
    <desc>Created with Sketch.</desc>
    <g id="thinking1" stroke="none" stroke-width="1" fill="none" fill-rule="evenodd">
        <g id="noun_People-Thought_641994" fill="#FFFFFF" fill-rule="nonzero">
            <g id="Group">
                <path d="M3.13262791,28.7073833 L3.13262791,34.5346256 L3.13262791,40.5417093 L3.13262791,67.8195595 C3.13262791,69.9859031 4.87036047,71.7408634 7.01403488,71.7408634 C9.1577093,71.7408634 10.8954419,69.9859031 10.8954419,67.8195595 L10.8954419,42.9931982 L12.4761977,42.9931982 L17.610907,68.5839648 C18.0369419,70.7068546 20.0854884,72.0786608 22.1864651,71.6479295 C24.2871279,71.2175154 25.6456047,69.1488634 25.2192558,67.0259736 L20.3146744,42.5830837 C20.4816977,42.6176564 20.6502907,42.6376388 20.8179419,42.6376388 C21.7425349,42.6376388 22.6322791,42.12 23.0705581,41.2265022 C25.6691512,35.9222907 26.7155581,31.6891982 26.7196548,28.2049692 C26.7227791,25.8905022 26.2399186,23.9157357 25.461,22.3215859 C24.2921512,19.917674 22.5164302,18.4488106 21.0785233,17.6184317 C19.8289884,16.8955771 18.8105233,16.6101145 18.441314,16.5197181 C18.2042791,16.4416916 17.9512326,16.3979207 17.6881395,16.3979207 L14.3884884,16.3979207 C13.0337791,19.4644229 11.7741977,21.9035419 10.5491512,23.821533 C9.37151163,25.6503965 6.91074419,28.7127753 3.13262791,28.7073833 Z M21.6966977,28.2052863 C21.7001512,29.9964053 21.2841628,32.3816035 20.1143721,35.4474714 L20.1143721,23.2905727 C20.945407,24.2636828 21.6756628,25.6542026 21.6966977,28.2052863 Z" id="Shape"></path>
                <path d="M11.7955465,11.3147841 C12.2300581,11.3147841 12.6529535,11.4045463 13.0532442,11.5818502 C13.8214884,11.9215507 14.4123488,12.5429075 14.7184535,13.3320529 C14.742314,13.3935859 14.7605233,13.4563877 14.7803023,13.5188722 C16.5943256,12.6015859 18.0061744,10.9065727 18.501907,8.75481938 C19.3866279,4.91693392 17.0241279,1.08126872 13.2256047,0.187770925 C9.42676744,-0.705726872 5.62981395,1.68074009 4.74509302,5.51862555 C3.96586047,8.90040529 5.70798837,12.2790132 8.73198837,13.6463789 C8.79415116,13.5033304 8.85631395,13.3599648 8.9187907,13.2162819 C9.4189186,12.060793 10.5482093,11.3147841 11.7955465,11.3147841 Z" id="Path"></path>
                <path d="M1.77603488,27.7399824 C1.86394186,27.8069075 1.95530233,27.8703436 2.05388372,27.9261674 C2.05702326,27.9280705 2.0607907,27.929022 2.06393023,27.9309251 C2.13990698,27.9737445 2.21745349,28.0095859 2.29594186,28.0425727 C2.35904651,28.0720705 2.41838372,28.1066432 2.484,28.1329692 C2.69026744,28.2157533 2.90972093,28.2750661 3.13262791,28.3201057 C3.36432558,28.3667313 3.60010465,28.3990837 3.83619767,28.3990837 C3.8434186,28.3990837 3.85001163,28.3990837 3.8569186,28.3990837 C4.88417442,28.3952775 5.7867907,28.0000705 6.56727907,27.4507137 C7.74334884,26.6092335 8.80262791,25.3696916 10.0217093,23.4777093 C11.1265116,21.7478062 12.3402558,19.4571278 13.702186,16.3982379 C13.8321628,16.1064317 13.9627674,15.8105022 14.0952558,15.5050573 C14.3407674,14.9376211 14.364,14.3289515 14.2048256,13.7776916 C14.0032674,13.0814802 13.5103605,12.4766167 12.8011395,12.1632423 C11.5308837,11.6015154 10.0496512,12.1867137 9.49395349,13.4700264 C9.43336047,13.6102203 9.37402326,13.7434361 9.31437209,13.8798238 C8.91376744,14.7939383 8.5279186,15.6341498 8.15965116,16.3982379 C7.85951163,17.0208634 7.57098837,17.5933744 7.29376744,18.1217974 C6.34656977,19.9271894 5.53562791,21.2028899 4.88605814,22.038978 C4.40162791,22.6688987 4.0095,23.0453921 3.77811628,23.2258678 C3.75488372,23.2211101 3.73165116,23.2214273 3.70810465,23.2176211 C4.52815116,22.4084934 5.71081395,20.2237533 6.99237209,17.5042467 C7.16222093,17.1442467 7.33363953,16.7750485 7.506,16.3982379 L5.55854651,16.3982379 C5.4587093,16.3982379 5.36044186,16.4061674 5.26374419,16.4182203 C5.14915116,16.4020441 5.03298837,16.3906256 4.914,16.3906256 C3.81359302,16.382696 2.83531395,16.8946256 2.21776744,17.4753833 C1.2730814,18.3638062 0.820360465,19.3692687 0.483802326,20.3798062 C0.162313953,21.3960529 0.00313953488,22.4405286 0,23.475489 C0.00376744186,24.1986608 0.0737790698,24.9132687 0.313639535,25.6646696 C0.534034884,26.3212335 0.912348837,27.1249692 1.77603488,27.7399824 Z" id="Path"></path>
            </g>
        </g>
    </g>
</svg>