<?xml version="1.0" encoding="UTF-8"?>
<svg width="24px" height="72px" viewBox="0 0 24 72" version="1.1" xmlns="http://www.w3.org/2000/svg" xmlns:xlink="http://www.w3.org/1999/xlink">
    <!-- Generator: Sketch 61.2 (89653) - https://sketch.com -->
    <title>thinking2</title>
    <desc>Created with Sketch.</desc>
    <g id="thinking2" stroke="none" stroke-width="1" fill="none" fill-rule="evenodd">
        <g id="noun_Thinking_882797" fill="#FFFFFF" fill-rule="nonzero">
            <g id="Group">
                <path d="M11.8180253,24.2509916 C10.7845063,26.4757311 9.94116456,27.7892773 8.90825316,28.7872941 C7.93518987,29.7127059 6.80293671,30.2024874 5.63179747,30.2082353 L5.62936709,30.2082353 L5.60506329,30.2082353 C4.8003038,30.2082353 4.13711392,29.9634958 3.64465823,29.6972773 L3.64465823,68.0127731 C3.64465823,70.0789916 5.32678481,71.7528403 7.40050633,71.7528403 C9.47483544,71.7528403 11.156962,70.0789916 11.156962,68.0127731 L11.156962,40.7038992 L12.5650633,40.7038992 L12.5650633,68.0127731 C12.5650633,70.0789916 14.2471899,71.7528403 16.3209114,71.7528403 C18.3952405,71.7528403 20.0773671,70.0789916 20.0773671,68.0127731 L20.0773671,32.658958 C20.0002025,32.7457815 19.9278987,32.8377479 19.8483038,32.9221513 C17.284557,35.6868908 13.4722025,37.2103866 9.11574684,37.2103866 L9.00243038,37.2103866 C8.48567089,37.2103866 7.94855696,37.1904202 7.40567089,37.1516975 C6.59635443,37.094521 5.85812658,36.7260504 5.32648101,36.114958 C4.79544304,35.5044706 4.53417722,34.7236639 4.59311392,33.9183529 C4.70582278,32.342521 6.0355443,31.1085378 7.62106329,31.1085378 C7.69275949,31.1085378 7.76658228,31.1106555 7.84010127,31.1164034 C8.2435443,31.1451429 8.63513924,31.1596639 9.00243038,31.1596639 C12.6792911,31.1300168 14.3638481,29.8709244 15.4207595,28.7773109 C16.9090633,27.2126723 17.6044557,25.0088067 17.9246582,23.4372101 L18.502481,23.6338487 C18.0792911,25.661042 17.2493165,27.7342185 15.8585316,29.1975126 C14.4373671,30.6674622 12.5073418,31.7365714 9.00243038,31.7644034 C8.61843038,31.7644034 8.21681013,31.7498824 7.79665823,31.7196303 C6.45751899,31.6240336 5.29397468,32.6277983 5.19827848,33.9613109 C5.10288608,35.2942185 6.11027848,36.4525714 7.44941772,36.5481681 L7.44911392,36.5481681 C7.9801519,36.5859832 8.49751899,36.605042 9.00243038,36.605042 C9.03979747,36.605042 9.07777215,36.605042 9.11513924,36.605042 C13.6578228,36.6053445 17.1590886,34.9302857 19.4038481,32.5092101 C21.4836456,30.289916 22.5487595,27.626521 23.1277975,25.2105882 C23.1757975,25.0100168 23.2216709,24.810958 23.2629873,24.6140168 C23.2687595,24.5892101 23.2766582,24.5650084 23.2812152,24.5395966 C23.6952911,22.5229916 23.7861266,20.7015126 23.7873418,19.4154958 C23.7873418,18.2901176 23.715038,17.5746555 23.7083544,17.5087059 C23.5801519,16.2741176 22.537519,15.3372101 21.291038,15.3372101 L18.1011646,15.3372101 C18.0382785,15.3372101 17.9766076,15.3420504 17.9155443,15.3465882 C17.8538734,15.3414454 17.7922025,15.3372101 17.7293165,15.3372101 L14.9304304,15.3372101 C14.9161519,15.5695462 14.8775696,15.803395 14.806481,16.0354286 C13.7523038,19.4687395 12.7749873,22.1560336 11.8180253,24.2509916 Z" id="Path"></path>
                <path d="M11.9003544,12.125042 C12.2005063,12.125042 12.4997468,12.1692101 12.7892658,12.2578487 C13.3676962,12.433916 13.8531646,12.7688067 14.2168101,13.1977815 C16.8309873,12.2421176 18.6966076,9.74147899 18.6966076,6.80642017 C18.6966076,3.04729412 15.6361519,-0.000302521008 11.8611646,-0.000302521008 C8.08617722,-0.000302521008 5.02572152,3.04729412 5.02572152,6.80642017 C5.02572152,9.76235294 6.91807595,12.2769076 9.56141772,13.2171429 C10.1246582,12.5379832 10.969519,12.125042 11.9003544,12.125042 Z" id="Path"></path>
                <path d="M0.891949367,24.0930756 C1.16141772,25.127395 1.49529114,26.1913613 2.05670886,27.201479 C2.32556962,27.6709916 2.64607595,28.1429244 3.12668354,28.5864202 C3.17043038,28.626958 3.21387342,28.6677983 3.26065823,28.7074286 C3.79716456,29.1748235 4.64779747,29.6031933 5.60506329,29.6031933 C5.61265823,29.6031933 5.62055696,29.6031933 5.62875949,29.6031933 C6.83453165,29.5971429 7.79696203,29.0069244 8.48506329,28.3522689 C9.53468354,27.3388235 10.339443,25.9923025 11.2642025,24.0002017 C12.1737722,22.0093109 13.1462278,19.3719328 14.2256203,15.8584538 C14.6178228,14.5796975 13.8950886,13.2268235 12.6115443,12.8362689 C11.3273924,12.4457143 9.96941772,13.1648067 9.57721519,14.443563 L9.57660759,14.443563 C8.19767089,18.9471933 7.01225316,21.8435294 6.11605063,23.4381176 C6.03463291,23.5857479 5.95534177,23.7218824 5.87939241,23.846521 C5.79918987,23.6141849 5.7244557,23.3603697 5.65579747,23.1020168 L6.0355443,22.2782521 C6.67503797,20.9650084 7.55878481,18.813479 8.66096203,15.3375126 L5.99210127,15.3375126 C5.92921519,15.3375126 5.8675443,15.3420504 5.80648101,15.3468908 C5.74481013,15.3420504 5.68313924,15.3375126 5.62025316,15.3375126 L2.43129114,15.3375126 C1.76324051,15.3375126 1.12891139,15.6085714 0.668962025,16.0901849 C0.209012658,16.5717983 -0.0306835443,17.2164706 0.00334177215,17.8802017 C0.0139746835,17.9600672 0.157670886,21.1852437 0.879797468,24.0567731 C0.882531646,24.069479 0.888303797,24.0806723 0.891949367,24.0930756 Z" id="Path"></path>
            </g>
        </g>
    </g>
</svg>